# xmcd
#
# Track frame offsets:
#	150
#	16729
#	35231
#	50831
#	69582
#	88280
#	104847
#	126928
#	148054
#	162424
#	175867
#	191443
#	212993
#	230564
#
# Disc length: 3310 seconds
#
# Revision: 0
# Processed by: cddbd v1.5.2PL0 Copyright (c) Steve Scherf et al.
# Submitted via: EasyCDDAExtractor 15.2.0.1
#
DISCID=da0cec0e
DTITLE=Gunslingers - Viagra, biff og bernaisesaus
DYEAR=2011
DGENRE=country
TTITLE0=Viagra, biff og bernaisesaus
TTITLE1=Frøken
TTITLE2=Captein Morgan
TTITLE3=Sofabonde
TTITLE4=Vart ikkje slek ho hadde tenkt
TTITLE5=Undgdomsblod
TTITLE6=Styrhuset var tomt
TTITLE7=S.A.T.S
TTITLE8=Match dot com
TTITLE9=Dar eg kjem i frå
TTITLE10=Familietrøbbel
TTITLE11=Dasslokket
TTITLE12=Koffor sa eg gå
TTITLE13=Grøftfyll AS
EXTD=
EXTT0=
EXTT1=
EXTT2=
EXTT3=
EXTT4=
EXTT5=
EXTT6=
EXTT7=
EXTT8=
EXTT9=
EXTT10=
EXTT11=
EXTT12=
EXTT13=
PLAYORDER=
